<svg xmlns="http://www.w3.org/2000/svg" width="85mm" height="65mm" viewBox="0 0 85 65"><rect width="85" height="65" rx="4" fill="#F3F0E9"/><text x="6" y="20" font-family="Newsreader" font-weight="500" font-size="13" fill="#120A24">Good films.</text><text x="6" y="36" font-family="Newsreader" font-weight="500" font-size="13" fill="#120A24">Better</text><text x="6" y="52" font-family="Newsreader" font-weight="500" font-size="13" fill="#120A24">company.</text><g fill="#B9A0FF" transform="translate(68 49) scale(0.16666666666666666) translate(-24 -18)"><path d="M27 82 Q24 82 24 79 L24 21 Q24 18 27 18 L75 18 Q78 18 78 21 L78 31 Q78 34 75 34 L45 34 Q42 34 42 37 L42 43 Q42 46 45 46 L65 46 Q68 46 68 49 L68 59 Q68 62 65 62 L45 62 Q42 62 42 65 L42 79 Q42 82 39 82 Z"/><path d="M54 73 Q54 70 57 70 L75 70 Q78 70 78 73 L78 79 Q78 82 75 82 L57 82 Q54 82 54 79 Z"/></g></svg>